<?xml version="1.0" standalone="no"?>
<svg
  t="1710294615140"
  class="icon"
  viewBox="0 0 1024 1024"
  version="1.1"
  xmlns="http://www.w3.org/2000/svg"
  p-id="1679"
  xmlns:xlink="http://www.w3.org/1999/xlink"
  width="16"
  height="16">
  <path
    d="M174.7456 855.6544l135.2704-45.056 23.7056 11.776a397.7216 397.7216 0 0 0 178.2784 41.6256c211.8144 0 384-166.8096 384-352S723.8144 160 512 160c-211.8656 0-384 166.8096-384 352 0 69.12 24.9344 139.264 70.8608 199.2192l22.0672 28.8256-46.2848 115.5584 0.1024 0.1024z m-45.2608 82.5856a32 32 0 0 1-39.8848-42.24l58.368-145.92C94.72 680.2944 64 596.8896 64 512 64 299.8784 256 96 512 96S960 299.8784 960 512 768 928 512 928a461.0048 461.0048 0 0 1-206.8992-48.384l-175.616 58.5728v0.0512z"
    p-id="1680">
  </path>
  <path
    d="M512 563.2a51.2512 51.2512 0 1 1 0-102.5024A51.2512 51.2512 0 0 1 512 563.2z m192 0a51.2512 51.2512 0 1 1 0-102.5024 51.2512 51.2512 0 0 1 0 102.5024z m-384 0a51.2512 51.2512 0 1 1 0-102.5024 51.2512 51.2512 0 0 1 0 102.5024z"
    p-id="1681">
  </path>
</svg>
