<?xml version="1.0" standalone="no"?>
<svg
  t="1710294610629"
  class="icon"
  viewBox="0 0 1024 1024"
  version="1.1"
  xmlns="http://www.w3.org/2000/svg"
  p-id="1527"
  xmlns:xlink="http://www.w3.org/1999/xlink"
  width="16"
  height="16">
  <path
    d="M358.4 102.4a71.68 71.68 0 0 1 71.68 71.68v245.76a10.24 10.24 0 0 1-10.24 10.24H174.08A71.68 71.68 0 0 1 102.4 358.4V174.08A71.68 71.68 0 0 1 174.08 102.4H358.4zM174.08 51.2A122.88 122.88 0 0 0 51.2 174.08V358.4a122.88 122.88 0 0 0 122.88 122.88h245.76a61.44 61.44 0 0 0 61.44-61.44V174.08A122.88 122.88 0 0 0 358.4 51.2H174.08zM849.92 102.4A71.68 71.68 0 0 1 921.6 174.08V358.4a71.68 71.68 0 0 1-71.68 71.68h-245.76a10.24 10.24 0 0 1-10.24-10.24V174.08A71.68 71.68 0 0 1 665.6 102.4h184.32zM665.6 51.2a122.88 122.88 0 0 0-122.88 122.88v245.76a61.44 61.44 0 0 0 61.44 61.44h245.76A122.88 122.88 0 0 0 972.8 358.4V174.08A122.88 122.88 0 0 0 849.92 51.2H665.6zM419.84 593.92c5.632 0 10.24 4.608 10.24 10.24v245.76A71.68 71.68 0 0 1 358.4 921.6H174.08A71.68 71.68 0 0 1 102.4 849.92V665.6a71.68 71.68 0 0 1 71.68-71.68h245.76z m-245.76-51.2A122.88 122.88 0 0 0 51.2 665.6v184.32A122.88 122.88 0 0 0 174.08 972.8H358.4a122.88 122.88 0 0 0 122.88-122.88v-245.76a61.44 61.44 0 0 0-61.44-61.44H174.08zM593.92 757.76a163.84 163.84 0 1 1 327.68 0 163.84 163.84 0 0 1-327.68 0z m163.84-215.04a215.04 215.04 0 1 0 0 430.08 215.04 215.04 0 0 0 0-430.08z"
    p-id="1528">
  </path>
</svg>
